<?xml version="1.0" standalone="no"?>
<!DOCTYPE svg PUBLIC "-//W3C//DTD SVG 20010904//EN"
 "http://www.w3.org/TR/2001/REC-SVG-20010904/DTD/svg10.dtd">
<svg version="1.0" xmlns="http://www.w3.org/2000/svg"
 width="96.000000pt" height="96.000000pt" viewBox="0 0 96.000000 96.000000"
 preserveAspectRatio="xMidYMid meet">

<g transform="translate(0.000000,96.000000) scale(0.100000,-0.100000)"
fill="#000000" stroke="none">
<path d="M150 794 c-43 -19 -77 -50 -97 -88 -34 -66 -66 -441 -43 -510 15 -45
60 -76 112 -76 52 0 93 39 126 119 l27 65 52 0 c43 1 57 6 82 30 17 17 31 36
31 43 0 9 14 13 40 13 26 0 40 -4 40 -13 0 -7 14 -26 31 -43 25 -24 39 -29 81
-30 51 0 52 -1 70 -43 50 -118 72 -141 138 -141 80 0 120 55 120 163 0 86 -28
354 -41 395 -24 74 -104 132 -184 132 -41 0 -117 -29 -129 -49 -10 -15 -242
-15 -252 0 -12 20 -88 49 -129 48 -22 0 -56 -7 -75 -15z m147 -34 c77 -34 109
-119 78 -204 -12 -36 -14 -51 -6 -54 44 -15 67 -95 38 -133 -17 -23 -52 -39
-82 -39 -37 0 -85 50 -85 88 0 26 -4 30 -37 36 -81 13 -142 82 -143 161 0 54
40 117 90 143 54 27 92 28 147 2z m534 -10 c119 -85 73 -272 -73 -296 -34 -6
-38 -10 -38 -36 0 -19 -10 -40 -29 -59 -40 -39 -82 -39 -122 0 -40 40 -39 82
1 123 l31 30 -17 44 c-44 116 46 233 169 220 26 -3 61 -15 78 -26z m-277 -65
c-17 -41 -18 -90 -3 -134 10 -28 9 -35 -9 -54 -11 -12 -24 -34 -27 -49 -6 -22
-13 -28 -35 -28 -22 0 -29 6 -35 28 -3 15 -16 37 -27 49 -18 19 -19 26 -9 54
15 44 14 93 -3 134 l-15 35 89 0 89 0 -15 -35z m-394 -252 c37 -13 50 -24 55
-43 4 -14 14 -33 22 -43 15 -16 14 -23 -12 -88 -40 -99 -83 -128 -149 -98 -42
20 -49 55 -41 207 4 75 9 140 11 144 3 4 19 -8 35 -27 18 -20 51 -42 79 -52z
m766 -77 c8 -139 0 -176 -42 -195 -66 -30 -109 -1 -149 98 -26 65 -27 72 -12
88 8 10 18 29 22 43 5 19 18 30 55 43 27 10 60 31 77 50 37 43 40 34 49 -127z"/>
<path d="M180 690 c0 -27 -3 -30 -30 -30 -29 0 -30 -2 -30 -45 0 -43 1 -45 30
-45 27 0 30 -3 30 -30 0 -29 2 -30 45 -30 43 0 45 1 45 30 0 27 3 30 30 30 29
0 30 2 30 45 0 43 -1 45 -30 45 -27 0 -30 3 -30 30 0 29 -2 30 -45 30 -43 0
-45 -1 -45 -30z m60 -30 c0 -27 3 -30 30 -30 20 0 30 -5 30 -15 0 -10 -10 -15
-30 -15 -27 0 -30 -3 -30 -30 0 -20 -5 -30 -15 -30 -10 0 -15 10 -15 30 0 27
-3 30 -30 30 -20 0 -30 5 -30 15 0 10 10 15 30 15 27 0 30 3 30 30 0 20 5 30
15 30 10 0 15 -10 15 -30z"/>
<path d="M290 460 c-11 -11 -20 -29 -20 -40 0 -11 9 -29 20 -40 11 -11 29 -20
40 -20 26 0 60 34 60 60 0 11 -9 29 -20 40 -11 11 -29 20 -40 20 -11 0 -29 -9
-40 -20z m65 -40 c0 -18 -6 -26 -23 -28 -13 -2 -25 3 -28 12 -10 26 4 48 28
44 17 -2 23 -10 23 -28z"/>
<path d="M706 734 c-9 -8 -16 -22 -16 -29 0 -7 7 -21 16 -29 8 -9 22 -16 29
-16 7 0 21 7 29 16 9 8 16 22 16 29 0 7 -7 21 -16 29 -8 9 -22 16 -29 16 -7 0
-21 -7 -29 -16z m38 -35 c-3 -5 -10 -7 -15 -3 -5 3 -7 10 -3 15 3 5 10 7 15 3
5 -3 7 -10 3 -15z"/>
<path d="M616 644 c-9 -8 -16 -22 -16 -29 0 -7 7 -21 16 -29 8 -9 22 -16 29
-16 7 0 21 7 29 16 9 8 16 22 16 29 0 18 -27 45 -45 45 -7 0 -21 -7 -29 -16z
m38 -35 c-3 -5 -10 -7 -15 -3 -5 3 -7 10 -3 15 3 5 10 7 15 3 5 -3 7 -10 3
-15z"/>
<path d="M796 644 c-9 -8 -16 -22 -16 -29 0 -18 27 -45 45 -45 18 0 45 27 45
45 0 18 -27 45 -45 45 -7 0 -21 -7 -29 -16z m38 -35 c-3 -5 -10 -7 -15 -3 -5
3 -7 10 -3 15 3 5 10 7 15 3 5 -3 7 -10 3 -15z"/>
<path d="M706 554 c-9 -8 -16 -22 -16 -29 0 -18 27 -45 45 -45 18 0 45 27 45
45 0 18 -27 45 -45 45 -7 0 -21 -7 -29 -16z m38 -35 c-3 -5 -10 -7 -15 -3 -5
3 -7 10 -3 15 3 5 10 7 15 3 5 -3 7 -10 3 -15z"/>
<path d="M590 460 c-11 -11 -20 -29 -20 -40 0 -11 9 -29 20 -40 11 -11 29 -20
40 -20 11 0 29 9 40 20 11 11 20 29 20 40 0 11 -9 29 -20 40 -11 11 -29 20
-40 20 -11 0 -29 -9 -40 -20z m65 -40 c0 -18 -6 -26 -23 -28 -13 -2 -25 3 -28
12 -10 26 4 48 28 44 17 -2 23 -10 23 -28z"/>
</g>
</svg>
